<svg width="16" height="13" viewBox="0 0 16 13" fill="none" xmlns="http://www.w3.org/2000/svg">
<path d="M14.5352 0.625H1.4375C0.699219 0.625 0.125 1.22656 0.125 1.9375V11.5625C0.125 12.3008 0.699219 12.875 1.4375 12.875H14.5352C15.2734 12.875 15.875 12.3008 15.875 11.5625V1.9375C15.875 1.22656 15.2734 0.625 14.5352 0.625ZM1.60156 1.9375H14.3711C14.4805 1.9375 14.5352 2.01953 14.5352 2.10156V3.25H1.4375V2.10156C1.4375 2.01953 1.49219 1.9375 1.60156 1.9375ZM14.3711 11.5625H1.60156C1.49219 11.5625 1.4375 11.5078 1.4375 11.3984V6.75H14.5352V11.3984C14.5352 11.5078 14.4805 11.5625 14.3711 11.5625ZM5.375 8.82812C5.375 8.66406 5.21094 8.5 5.04688 8.5H3.07812C2.88672 8.5 2.75 8.66406 2.75 8.82812V9.92188C2.75 10.1133 2.88672 10.25 3.07812 10.25H5.04688C5.21094 10.25 5.375 10.1133 5.375 9.92188V8.82812ZM10.625 8.82812C10.625 8.66406 10.4609 8.5 10.2969 8.5H6.57812C6.38672 8.5 6.25 8.66406 6.25 8.82812V9.92188C6.25 10.1133 6.38672 10.25 6.57812 10.25H10.2969C10.4609 10.25 10.625 10.1133 10.625 9.92188V8.82812Z" fill="#CF4A3B"/>
</svg>
