<svg width="14" height="15" viewBox="0 0 14 15" fill="none" xmlns="http://www.w3.org/2000/svg">
<path d="M11.1429 0.428571H2.57143C1.15179 0.428571 0 1.58036 0 3V11.5714C0 12.9911 1.15179 14.1429 2.57143 14.1429H7.32143V8.83036H5.53571V6.75893H7.32143V5.23214C7.32143 3.46428 8.41072 2.5 9.99107 2.5C10.7411 2.5 11.3929 2.55357 11.5804 2.58036V4.42857L10.4911 4.4375C9.625 4.4375 9.46429 4.83928 9.46429 5.4375V6.75893H11.5089L11.2411 8.83036H9.46429V14.1429H11.1429C12.5625 14.1429 13.7143 12.9911 13.7143 11.5714V3C13.7143 1.58036 12.5625 0.428571 11.1429 0.428571Z" fill="white"/>
</svg>
