<svg width="13" height="13" viewBox="0 0 13 13" fill="none" xmlns="http://www.w3.org/2000/svg">
<path d="M12.5714 10.3571C12.5714 10.2946 12.5714 10.2321 12.5446 10.1696C12.4821 9.98214 12.0446 9.78571 11.8661 9.69643C11.3571 9.41071 10.8393 9.13393 10.3393 8.83929C10.1071 8.69643 9.82143 8.42857 9.54464 8.42857C9 8.42857 8.20536 10.0446 7.72321 10.0446C7.48214 10.0446 7.16964 9.82143 6.95536 9.69643C5.33036 8.79464 4.20536 7.66964 3.30357 6.04464C3.17857 5.83036 2.95536 5.51786 2.95536 5.27679C2.95536 4.79464 4.57143 4 4.57143 3.45536C4.57143 3.17857 4.30357 2.89286 4.16071 2.66071C3.86607 2.16071 3.58929 1.64286 3.30357 1.13393C3.21429 0.955357 3.01786 0.517857 2.83036 0.455357C2.76786 0.428571 2.70536 0.428571 2.64286 0.428571C2.32143 0.428571 1.69643 0.571428 1.40179 0.705357C0.964286 0.892857 0.678571 1.39286 0.455357 1.79464C0.169643 2.32143 0 2.85714 0 3.45536C0 4.28571 0.339286 5.03571 0.616071 5.79464C0.8125 6.33929 1.05357 6.86607 1.35714 7.35714C2.29464 8.875 4.125 10.7054 5.64286 11.6429C6.13393 11.9464 6.66071 12.1875 7.20536 12.3839C7.96429 12.6607 8.71429 13 9.54464 13C10.1429 13 10.6786 12.8304 11.2054 12.5446C11.6071 12.3214 12.1071 12.0357 12.2946 11.5982C12.4286 11.3036 12.5714 10.6786 12.5714 10.3571Z" fill="white"/>
</svg>
